<svg id="Layer_1" height="512" viewBox="0 0 512 512" width="512" xmlns="http://www.w3.org/2000/svg" data-name="Layer 1"><path d="m431.96 194.806h22.14c21.962.394 21.968 33.035 0 33.432h-22.214c-22.247-.709-22.228-32.831.074-33.432zm-91.16-67.385c20.457-1.668 32.232-21.029 33.061-40.341h-33.061zm-79.863 167.679c2.659.053 29.708-.1 31.648.075 10.154 1.047 18.084 10.162 17.384 20.207-1.708 9.881-7.28 17.979-14.635 23.923-4.11 35.376 35.875 63.716 67.83 48.217-11.887-7.727-18.351-19.317-17.385-32.615l4.384-70.728a24.134 24.134 0 0 0 -21.546-25.557l-106.686-11.217c-2.776 24.831 12.898 47.495 39.006 47.695zm-94.726-70.579h-48.291a14.859 14.859 0 0 0 -14.859 14.859v47.455h78.009v-47.453a14.859 14.859 0 0 0 -14.859-14.859zm-42.124 177.49 7.8-20.654c-20.343-8.137-22.842 19.375-7.8 20.654zm31.129 41.679a24.116 24.116 0 0 1 -22.586-32.615l25.409-67.831c.074 0 .074 0 .074.075a50.079 50.079 0 0 0 26.375 7.5h78.6a51.731 51.731 0 0 0 21.025-4.68c1.726 78.817 125.941 71.706 118.648-7.8l-10.845-113.816c4.926.3 10.493-.8 13.967-3.269a26.433 26.433 0 0 0 20.8 17.533l14.417 158.989a5.633 5.633 0 0 0 5.572 5.052 46.493 46.493 0 0 1 46.062 40.862zm33.284-31.575a5.613 5.613 0 0 0 5.572 5.572h59.435a5.613 5.613 0 0 0 5.572-5.572v-22.288a20.419 20.419 0 0 0 -20.43-20.431h-29.719a20.419 20.419 0 0 0 -20.43 20.431zm59.435-22.288a9.289 9.289 0 0 0 -9.286-9.287h-29.719a9.29 9.29 0 0 0 -9.287 9.287v16.716h48.291zm-98.662 64.412c6.07 44.521 69.669 45.4 76.82.6h-70.877a31.578 31.578 0 0 1 -5.944-.6zm335.882.6h-76.969c7.122 44.268 69.845 44.271 76.968-.005zm-155.5-319.761v-53.57a5.613 5.613 0 0 1 5.572-5.572h49.109c-5.422-28.826-28.676-41.085-50.667-40.416-23.477.668-47.548 16.418-48.588 49.851a50.22 50.22 0 0 0 44.576 49.702zm-261.883 137.736h-19.1a5.572 5.572 0 1 0 0 11.144h19.1c7.28-.032 7.29-11.112 0-11.144zm0-29.717h-31.84a5.572 5.572 0 1 0 0 11.144h31.84c7.276-.032 7.293-11.112 0-11.141zm0-29.718h-44.572c-7.273.03-7.3 11.111 0 11.144h44.572c7.272-.03 7.296-11.111 0-11.144zm-39-117.013c0-39.3 34.843-72.436 76.151-72.436 78.2 1.3 105.932 99.823 34.62 136.478a5.645 5.645 0 0 0 -3.045 4.977v20.134l-21.248-15.973a5.162 5.162 0 0 0 -3.938-1.041c-40.106 5.152-83.712-31.531-82.544-72.139zm26 16.568v9.435a13.065 13.065 0 0 0 13 13h74.294a13.064 13.064 0 0 0 13-13v-9.435c10.514 1.169 9.194-12.167 0-11.144 1.788-68.79-102.066-68.82-100.296 0-9.78-.959-9.776 12.771 0 11.144zm13 11.293h74.294a1.84 1.84 0 0 0 1.857-1.858v-12.184c-3.616-1.808-6.126-4.532-13-4.532-10.463 0-11.8 7.429-26.078 7.429a28.2 28.2 0 0 1 -15.75-4.457c-2.361-1.94-6.288-2.9-10.216-2.889-7.826.013-9.041 2.564-12.963 4.375v12.258a1.84 1.84 0 0 0 1.856 1.858zm26.894-25.26.013.008c2.463 2.024 6.927 2.963 10.165 2.963 3.355 0 7.859-1.008 10.24-2.964l.013-.008c5.461-4.787 22.257-5.861 28.6-1.634-.826-22.547-18.47-36.255-38.781-36.255-20.735 0-37.977 14.185-38.781 36.255 6.859-4.532 23.479-2.748 28.531 1.635zm307.428-11.887a5.572 5.572 0 1 0 0-11.144h-17.756v11.144zm-96.019 126.3h88.589c12.309-.453 12.31-18.165-.074-18.573h-81.436c6.438-17.11 17.785-36.511 2.09-51.709a60.515 60.515 0 0 1 -19.316-10.921c-25.283 20.923-67.728 56.428-73.328 99.923v.074c-.148 1.337-.3 2.749-.372 4.086l66.345 6.984c11.303-12.693 14.647-22.516 17.502-29.865zm-157.375 100.468h.013c-.7 7.607 14.317 25.832 35.778 25.832h78.6c14.9 0 32.853-10.3 35.81-25.7-.241-4.249-3.063-7.727-10.4-7.727h-107.431v-11.153h-89.153c-.138 4.5-.664 10.957 5.572 11.144h51.211z"/></svg>