<svg  enable-background="new 0 0 512.009 512.009" height="512" viewBox="0 0 512.009 512.009" width="512" xmlns="http://www.w3.org/2000/svg"><g><path d="m250.317 89.973c2.929 2.929 6.768 4.394 10.606 4.394 3.839 0 7.678-1.464 10.607-4.394 5.858-5.858 5.858-15.355 0-21.213l-20.677-20.677c-5.857-5.858-15.355-5.858-21.213 0s-5.858 15.355 0 21.213z"/><path d="m374.324 94.367c3.839 0 7.678-1.464 10.607-4.394l20.677-20.677c5.858-5.858 5.858-15.355 0-21.213-5.857-5.858-15.355-5.858-21.213 0l-20.678 20.677c-5.858 5.858-5.858 15.355 0 21.213 2.929 2.929 6.768 4.394 10.607 4.394z"/><path d="m317.623 59.242c8.284 0 15-6.716 15-15v-29.242c0-8.284-6.716-15-15-15s-15 6.716-15 15v29.242c0 8.284 6.716 15 15 15z"/><path d="m480.566 260.378h-168.323c-8.284 0-15-6.716-15-15s6.716-15 15-15h37.275l9.651-41.906c6.949-29.946-8.401-59.768-35.053-72.257-7.422-3.478-16.267-.173-19.776 7.234l-32.008 67.571c-11.325 23.908-28.824 44.362-50.69 59.251l-39.981 27.223v189.368l12.827 8.617c35.448 23.813 77.184 36.529 119.887 36.529h126.369l.487-.121c17.363 0 31.439-14.076 31.439-31.439s-14.076-31.439-31.439-31.439h17.01c17.363 0 31.439-14.076 31.439-31.439 0-17.363-14.076-31.439-31.439-31.439h11.694c17.363 0 31.439-14.076 31.439-31.439s-14.075-31.439-31.439-31.439h10.631c17.363 0 31.439-14.076 31.439-31.439-.001-17.361-14.076-31.436-31.439-31.436z"/><path d="m123.492 258.272h-108.488c-8.284 0-15 6.716-15 15v223.737c0 8.284 6.716 15 15 15h108.488c15.557 0 28.169-12.612 28.169-28.169v-197.399c0-15.558-12.612-28.169-28.169-28.169zm-46.938 208.356c-11.193.103-18.598-12.236-13.23-22.06 5.814-11.104 22.364-10.29 27.08 1.32 4.156 9.66-3.335 20.878-13.85 20.74z"/></g></svg>