<svg id="Layer_1" enable-background="new 0 0 512 512" height="512" viewBox="0 0 512 512" width="512" xmlns="http://www.w3.org/2000/svg"><path clip-rule="evenodd" d="m73.974 127.993h62.338v33.85c0 5.9 4.783 10.683 10.683 10.683s10.683-4.783 10.683-10.683v-33.85h111.888v33.85c0 5.9 4.783 10.683 10.683 10.683s10.683-4.783 10.683-10.683v-33.85h62.337c6.926 0 12.663 5.235 13.297 12.131l10.05 109.335c-4.754-.494-9.578-.751-14.463-.751-76.34 0-138.226 61.886-138.226 138.226 0 18.776 3.751 36.674 10.532 52.995h-172.674c-7.621 0-14.182-2.895-19.318-8.526-5.137-5.63-7.419-12.428-6.722-20.018l24.932-271.261c.634-6.896 6.371-12.131 13.297-12.131zm62.338-1.759v-38.084c0-21.271 8.694-40.601 22.701-54.608s33.337-22.701 54.608-22.701 40.601 8.694 54.608 22.701 22.701 33.338 22.701 54.608v38.084h-21.365v-38.084c0-15.373-6.297-29.358-16.442-39.502-10.145-10.145-24.128-16.442-39.502-16.442-15.373 0-29.357 6.297-39.502 16.442-10.145 10.144-16.442 24.128-16.442 39.502v38.084zm225.84 146.474c-63.085 0-114.226 51.141-114.226 114.226s51.141 114.226 114.226 114.226 114.226-51.141 114.226-114.226-51.141-114.226-114.226-114.226zm-55.834 120.988 34.174 31.385c4.789 4.406 12.201 4.172 16.704-.472l60.979-58.384c4.763-4.582 4.91-12.159.328-16.922s-12.159-4.91-16.922-.328l-53.144 50.883-25.9-23.786c-4.867-4.478-12.444-4.163-16.922.703-4.479 4.866-4.164 12.443.703 16.921z" fill-rule="evenodd"/></svg>